<svg width="200" height="200" xmlns="http://www.w3.org/2000/svg">
  <!-- Define a path that represents an irregular shape -->
  <path d="
    M 10,100
    L 20,80
    L 30,70
    L 40,65
    L 60,60
    L 80,65
    L 90,75
    L 100,85
    L 110,90
    L 120,95
    L 130,100
    L 140,105
    L 150,115
    L 160,125
    L 170,135
    L 180,145
    L 190,155
    L 180,165
    L 170,155
    L 160,145
    L 150,135
    L 140,125
    L 130,115
    L 120,105
    L 110,95
    L 100,85
    L 90,75
    L 80,65
    L 70,60
    L 60,55
    L 50,60
    L 40,65
    L 30,70
    L 20,80
    L 10,100
    L 0,120
    L 10,140
    L 30,150
    L 50,140
    L 70,130
    L 90,120
    L 110,110
    L 130,100
    L 150,90
    L 170,80
    L 190,70
    L 200,80
    L 190,90
    L 180,100
    L 170,110
    L 160,120
    L 150,130
    L 140,140
    L 130,150
    L 120,160
    L 110,170
    L 100,180
    L 90,190
    L 80,200
    L 70,190
    L 60,180
    L 50,170
    L 40,160
    L 30,150
    L 20,140
    L 10,130
    L 0,120
    Z" 
    fill="none" 
    stroke="black" 
    stroke-width="2"
  />
  <!-- Define the line of symmetry -->
  <line x1="100" y1="0" x2="100" y2="200" stroke="red" stroke-width="2" stroke-dasharray="5,5"/>
</svg>
